<?xml version="1.0" standalone="no"?>
<!DOCTYPE svg PUBLIC "-//W3C//DTD SVG 20010904//EN"
 "http://www.w3.org/TR/2001/REC-SVG-20010904/DTD/svg10.dtd">
<svg version="1.0" xmlns="http://www.w3.org/2000/svg"
 width="150.000000pt" height="160.000000pt" viewBox="0 0 150.000000 160.000000"
 preserveAspectRatio="xMidYMid meet">

<g transform="translate(0.000000,160.000000) scale(0.100000,-0.100000)"
fill="#000000" stroke="none">
<path d="M1210 1450 c-138 -92 -180 -116 -231 -130 -26 -8 -30 -6 -35 18 -15
69 -14 69 -40 39 -13 -15 -27 -34 -32 -44 -8 -14 -14 -12 -42 20 -38 44 -46
45 -54 12 l-7 -26 -44 31 c-51 35 -65 37 -65 9 l0 -20 -29 21 c-17 11 -45 27
-64 35 l-34 14 5 -44 c2 -25 2 -45 -2 -45 -15 0 -134 65 -221 121 -99 64 -128
70 -134 29 -5 -38 18 -155 50 -249 l28 -85 -22 -15 c-12 -8 -40 -33 -62 -55
l-39 -41 42 -5 42 -5 -49 -42 c-27 -24 -59 -56 -70 -71 l-20 -29 57 5 57 5
-34 -39 c-66 -75 -94 -190 -76 -310 l7 -49 30 38 c17 21 43 44 58 52 l27 14 5
-77 c3 -46 13 -95 25 -122 l20 -45 15 30 c9 17 25 39 37 49 21 19 21 19 21 -5
0 -38 19 -95 39 -120 l18 -23 18 37 c9 20 20 37 24 37 4 0 15 -16 25 -36 9
-20 29 -52 43 -71 l26 -34 20 33 21 33 23 -76 c27 -88 56 -125 107 -134 55
-11 122 3 148 30 13 13 35 61 49 107 l26 83 23 -39 23 -38 19 23 c10 13 30 46
45 74 25 48 26 49 42 28 9 -11 21 -29 27 -39 10 -17 13 -16 29 16 10 19 24 58
30 85 l12 50 33 -48 34 -47 19 47 c11 27 22 80 25 120 l5 72 28 -15 c16 -8 39
-30 52 -49 12 -19 25 -35 28 -35 8 0 29 104 29 145 0 59 -30 134 -76 190 -41
51 -42 55 -22 55 13 0 38 -4 56 -9 31 -9 33 -9 26 12 -9 30 -69 111 -96 131
-22 16 -21 16 26 10 l49 -7 -19 33 c-11 18 -33 44 -50 58 l-31 25 24 61 c55
141 77 274 51 309 -12 14 -27 7 -148 -73z m-927 -19 c71 -52 151 -96 231 -126
l66 -25 0 40 c0 22 5 40 10 40 6 0 30 -20 54 -45 l44 -45 7 38 7 37 29 -33
c23 -26 29 -41 29 -80 0 -99 -32 -152 -92 -152 -35 0 -36 -15 -1 -37 l27 -18
-64 -5 -65 -5 40 -28 c22 -15 56 -38 75 -50 36 -24 50 -54 30 -67 -8 -5 -6
-17 9 -41 29 -47 28 -61 -5 -49 -27 11 -74 4 -74 -11 0 -5 10 -9 23 -9 43 -1
77 -48 77 -106 0 -21 -4 -24 -20 -19 -31 10 -60 -12 -60 -44 0 -16 7 -34 15
-41 21 -17 12 -24 -14 -11 -42 23 -64 99 -40 142 8 16 17 19 42 14 30 -6 31
-5 13 10 -43 33 -87 10 -106 -56 -11 -39 -3 -76 46 -201 25 -65 34 -103 34
-148 0 -81 26 -110 98 -110 70 0 88 23 96 122 3 43 12 92 19 110 14 33 14 32
10 -22 -12 -158 -21 -194 -53 -222 -41 -38 -119 -40 -154 -5 -23 23 -46 100
-46 155 0 15 -13 54 -29 87 -24 50 -30 55 -30 33 -1 -15 4 -39 9 -54 9 -24 7
-31 -20 -57 -17 -16 -33 -28 -35 -25 -2 2 -20 37 -38 77 l-34 73 -30 -37 c-30
-35 -30 -36 -37 -13 -3 13 -6 49 -6 80 0 50 -2 57 -17 51 -10 -3 -35 -22 -55
-41 l-36 -34 -7 47 c-4 25 -5 66 -1 91 l6 44 -38 0 c-20 0 -52 -9 -70 -20 -18
-11 -34 -20 -35 -20 -2 0 0 27 4 59 9 81 48 161 107 220 l49 49 -50 6 -50 7
24 26 c13 14 44 39 68 54 l45 29 -55 0 -54 1 40 35 c25 22 62 41 98 51 54 16
57 17 36 29 -22 11 -19 13 34 30 31 10 57 21 57 25 0 5 -25 16 -55 25 -51 16
-54 19 -39 35 14 15 12 19 -30 47 -54 37 -57 32 -47 -74 5 -44 5 -83 0 -88
-10 -11 -69 175 -76 242 -3 28 -3 52 1 52 4 0 30 -17 59 -39z m696 -425 c-2
-1 -24 -13 -49 -25 -25 -13 -58 -35 -74 -49 l-28 -27 33 65 c22 43 34 59 37
47 3 -16 5 -16 29 3 22 17 27 18 40 4 9 -8 14 -16 12 -18z m-10 -132 c-13 -16
-56 -15 -51 1 2 6 10 9 17 7 8 -1 20 8 27 20 11 20 13 21 16 5 2 -10 -2 -25
-9 -33z m-273 -370 c17 -11 37 -15 64 -11 30 4 40 2 40 -9 0 -9 -9 -13 -30
-10 -16 2 -30 -1 -30 -7 0 -5 -7 -4 -15 3 -8 7 -15 9 -15 4 0 -5 -7 0 -15 10
-14 18 -15 18 -29 -15 l-15 -34 -1 36 c0 32 6 49 17 49 2 0 15 -7 29 -16z
m141 -30 c1 -21 -1 -30 -4 -19 -3 11 -9 24 -14 30 -13 14 -11 37 4 33 6 -3 13
-22 14 -44z m-137 -232 c0 -27 -25 -5 -28 24 -3 28 -3 28 12 9 8 -11 16 -26
16 -33z m130 26 c0 -21 -17 -41 -28 -34 -5 3 -12 -1 -16 -9 -8 -23 -76 -20
-76 3 0 9 4 13 8 7 14 -20 52 -12 75 17 24 30 37 36 37 16z"/>
<path d="M458 966 c12 -20 22 -50 22 -65 0 -46 55 -80 102 -62 16 6 34 5 56
-5 18 -7 32 -9 32 -5 0 13 -75 78 -112 97 -18 9 -53 31 -78 47 l-44 31 22 -38z
m100 -81 c22 0 21 -19 -2 -23 -23 -5 -46 16 -46 42 1 21 1 21 16 1 8 -11 23
-20 32 -20z"/>
</g>
</svg>
